<svg width="94" height="88" viewBox="0 0 94 88" fill="none" xmlns="http://www.w3.org/2000/svg">
<path d="M46.082 0.621109C44.7539 1.10939 43.6211 1.91017 42.3711 3.21877C41.082 4.60548 40.3203 5.79689 38.6992 9.03908C37.0391 12.3789 35.9844 13.8438 34.4609 14.9961C32.9961 16.0899 32.3906 16.4219 27.6055 18.6485C23.1328 20.7188 21.1602 21.8711 19.5781 23.3164L18.3672 24.4297L17.8008 23.961C13.4648 20.4844 6.60937 23.2383 4.20703 29.4297C2.99609 32.5547 1.51172 38.8828 0.808593 43.9024C-0.207032 51.2656 -0.0898447 58.668 1.10156 62.2813C2.01953 65.0352 3.99219 67.3985 6.33594 68.5508C7.625 69.1953 7.9375 69.2735 9.30469 69.2735C10.6719 69.2735 11.0039 69.1953 12.2734 68.5508L13.7188 67.8477L15.418 69.4883C18.2695 72.2422 21.7852 74.3516 25.6523 75.6211C28.1523 76.461 29.9492 76.7735 33.0352 76.9297C37.5469 77.1445 38.6992 77.5547 43.9141 80.836C49.4023 84.2539 55.1055 86.7149 59.3828 87.457C61.668 87.8477 65.0664 87.8477 66.707 87.4375C69.4219 86.7539 71.4141 85.3672 72.3125 83.5313C72.7812 82.5742 72.8203 82.3008 72.7422 80.8555C72.6641 79.332 72.332 78.3555 71.2773 76.4024C71.2383 76.3438 72.1172 76.2266 73.2109 76.168C78.582 75.836 82.4492 73.8633 84.0312 70.6406C84.5195 69.6445 84.5977 69.2539 84.5977 67.8281C84.5977 66.4024 84.5195 66.0117 84.0312 65.0156C83.4062 63.7461 81.9023 62.1445 80.3789 61.1094L79.3828 60.4453L79.9492 60.3477C80.2422 60.2891 81.0234 60.1719 81.668 60.1133C83.582 59.8985 86.2969 59.1172 87.9375 58.3164C89.8516 57.3985 92 55.3672 92.7617 53.7656C93.875 51.461 94.207 48.375 93.5625 46.3828C92.625 43.4922 89.3242 41.2461 84.0312 39.918L81.9023 39.3711L82.7617 38.7656C83.25 38.4531 83.9727 37.8086 84.3828 37.3594C86.8242 34.6446 87.0391 29.7813 84.8711 26.3828C83.4844 24.2344 80.8281 22.4961 77.918 21.8516C75.6914 21.3633 72.8203 21.4805 63.9336 22.418C54.793 23.375 51.4336 23.6875 51.3359 23.6094C51.3164 23.5703 52 22.5938 52.8789 21.4219C57.1562 15.6797 58.1914 10.2305 55.9258 5.4258C55.0273 3.53127 53.3867 1.79298 51.7266 0.992203C50.6133 0.445328 50.1836 0.347672 48.7578 0.289078C47.5078 0.250015 46.8437 0.32814 46.082 0.621109ZM50.2812 4.1758C51.9023 4.97658 53.3281 7.39845 53.5625 9.8008C53.7187 11.5 53.1914 13.961 52.2734 15.836C51.8242 16.7344 50.5156 18.7266 49.3437 20.2695C48.1719 21.8125 46.9023 23.6485 46.5117 24.3711C45.5156 26.1289 44.6172 28.7656 43.8945 31.9297C43.1133 35.4453 42.5078 36.6172 40.4766 38.6289C37.9375 41.1485 35.6523 42.0469 31.6484 42.0469C29.7539 42.0469 29.4414 42.086 29.0703 42.4375C28.1328 43.3164 28.3867 44.8008 29.5391 45.2891C30.418 45.6602 33.5625 45.6406 35.4375 45.25C39.4023 44.4492 42.8203 42.1055 45.125 38.6485C46.1211 37.125 46.7461 35.543 47.2148 33.2969C47.6836 30.9727 48.0547 29.5664 48.6016 28.2188L48.9922 27.2031H50.2031C51.7266 27.2031 56.043 26.793 64.1875 25.8946C72.1367 25.0156 76.5312 24.8985 78.2891 25.5625C81.3359 26.7344 82.8203 28.7656 82.8203 31.8125C82.8008 35.211 80.6914 36.7735 74.4023 38.0235C72.3711 38.4336 71.3164 38.5313 68.7383 38.5313C64.1875 38.5313 59.3633 39.0977 58.3281 39.7617C57.4687 40.2891 57.3125 41.5586 57.9961 42.3594C58.5625 43.0235 59.0898 43.043 61.6484 42.5352C63.25 42.2031 64.4023 42.1446 69.9492 42.1446C76.5508 42.1446 78.0742 42.2617 81.9219 43.043C86.2578 43.9219 89.1484 45.3867 90.0859 47.1641C90.457 47.8672 90.4375 49.7422 90.0469 51.0313C89.4414 53.043 88.2695 54.293 86.0039 55.3281C83.3867 56.5 80.5938 56.8906 74.8906 56.8906C70.9844 56.8906 70.75 56.8711 68.7578 56.3047C64.793 55.1914 59.3828 54.332 54.7148 54.0391C52.5664 53.9219 52.5469 53.9219 51.9219 54.4492C51.4336 54.8594 51.2969 55.1133 51.2969 55.6797C51.3164 57.0664 51.8828 57.3789 54.6172 57.5547C65.6914 58.2774 76.8047 61.7735 80.1836 65.6016C82.4102 68.1406 80.6914 70.9727 76.1797 72.2227C74.7148 72.6328 70.3398 72.8281 68.6797 72.5547C67.6445 72.3789 66.9805 72.086 65.0664 70.9336C62.0977 69.1367 58.8164 67.5547 54.6562 65.9336C50.8867 64.4688 50.1055 64.3516 49.4219 65.1524C48.8555 65.8164 48.7969 66.832 49.3047 67.3985C49.4805 67.6328 51.082 68.3555 52.9961 69.0977C59.8125 71.6953 64.6562 74.3516 66.9023 76.7149C69.2461 79.1953 69.9102 81.4024 68.6797 82.6524C67.7031 83.6094 66.1602 84.0977 63.6602 84.1953C58.8164 84.3711 52.8398 82.2617 45.8477 77.8867C40.1836 74.332 38.6602 73.7852 33.8555 73.4727C32.1562 73.375 30.1445 73.1602 29.3828 73.0039C23.1719 71.6953 17.0977 67.5352 14.832 63.043C14.1484 61.7149 13.8359 60.543 13.6211 58.6094C13.4258 56.8516 13.4648 56.1289 13.9141 53.2383C14.0312 52.4961 13.9727 52.3594 13.4453 51.8125C13.0156 51.3828 12.6641 51.2266 12.1953 51.2266C10.9062 51.2461 10.418 52.1055 10.1055 54.9766C9.8125 57.5352 10.1055 60.3477 10.8867 62.5547C11.668 64.7813 11.668 64.8985 10.8867 65.3672C8.875 66.5586 6.29687 65.1524 4.8125 62.0664C2.64453 57.5547 3.5625 43.4141 6.6875 33.1016C7.52734 30.3477 8.11328 29.1758 9.24609 27.9649C11.375 25.6797 14.5391 25.3281 16.2188 27.1836C16.5312 27.5352 16.5508 27.6914 16.3555 28.4531C15.8477 30.4844 16.375 31.6953 17.7422 31.6953C18.7578 31.6953 19.207 31.2461 19.6562 29.7813C20.7305 26.168 22.1367 25.0547 30.2031 21.3633C37.1953 18.1406 39.0898 16.3438 42.2344 9.97658C43.7578 6.85158 44.9297 5.28908 46.4141 4.39064C47.7031 3.62892 48.9727 3.5508 50.2812 4.1758Z" fill="black"/>
</svg>
